# xmcd
#
# Track frame offsets:
#	150
#	15800
#	28550
#	49109
#	69785
#	86197
#	107315
#	137460
#	153557
#	172930
#
# Disc length: 2687 seconds
#
# Revision: 0
# Processed by: cddbd v1.4PL0 Copyright (c) Steve Scherf et al.
# Submitted via: dBpowerAMP V4.0
#
DISCID=670a7d0a
DTITLE=Julian Velard - Nightime
DYEAR=2003
DGENRE=Blues
TTITLE0=Nightime
TTITLE1=Yeah, Yeah, Yeah, (work to do)
TTITLE2=Musta been Somebody Else
TTITLE3=All In All
TTITLE4=All Right for You
TTITLE5=Jack
TTITLE6=Can't Stand for This
TTITLE7=How I Became a Pirate
TTITLE8=Maybe Baby
TTITLE9=Ghosts in the Water
EXTD=
EXTT0=
EXTT1=
EXTT2=
EXTT3=
EXTT4=
EXTT5=
EXTT6=
EXTT7=
EXTT8=
EXTT9=
PLAYORDER=
